:FULLY-SPECIFIED
:FORCE-ALL-JOINTS-BE-3DOF
:DEGREES
816
root -3.2432 14.872 -38.8466 15.5169 -63.9598 -12.0383
lfemur -36.394 17.8609 11.778
ltibia 46.5705 -0 0
lfoot 15.5693 16.5329 0.612678
ltoes -6.72001 0 0
rfemur -20.6187 -17.5272 12.9015
rtibia 64.2243 -0 0
rfoot -25.5521 -28.0358 0.00411658
rtoes -19.4113 0 0
lowerback 15.9942 2.53108 3.58378
upperback -1.17569 4.23145 2.32224
thorax -10.2082 1.86819 -0.53729
lowerneck -5.09049 8.98838 3.5833
upperneck 4.30217 12.0479 -4.88003
head 2.88943 5.90651 -1.66088
lclavicle -4.02317e-14 -3.44408e-15 -6.6314e-31
lhumerus -0.244858 -22.8815 62.3851
lradius 103.372 -0 0
lwrist 4.37584 0 0
lhand -25.0915 47.4858 0.0227589
lfingers 7.12502 -0 0
lthumb 1.42268 77.4737 0.0198609
rclavicle -4.02317e-14 -3.44408e-15 -6.6314e-31
rhumerus -46.9175 48.4444 -92.5343
rradius 116.369 -0 0
rwrist -17.3417 0 0
rhand 26.0724 -10.5235 2.71733
rfingers 7.12502 -0 0
rthumb 50.0247 -29.398 3.23909
817
root -3.19313 14.8771 -38.8492 15.1984 -63.6278 -11.6973
lfemur -36.2574 17.8296 11.8227
ltibia 46.4328 -0 0
lfoot 15.6777 16.6818 0.593354
ltoes -6.76844 0 0
rfemur -20.7916 -17.5951 12.9012
rtibia 64.3197 -0 0
rfoot -25.5389 -28.0279 0.00400368
rtoes -19.4236 0 0
lowerback 16.0028 2.54056 3.55066
upperback -1.18055 4.23783 2.30016
thorax -10.2188 1.87254 -0.54466
lowerneck -5.09558 9.01432 3.6075
upperneck 4.30343 12.0833 -4.92312
head 2.89592 5.92329 -1.67638
lclavicle -4.02162e-14 -3.67185e-15 -6.41482e-31
lhumerus -0.591617 -23.3067 62.2204
lradius 103.966 -0 0
lwrist 4.98503 0 0
lhand -25.0658 47.5387 0.0206247
lfingers 7.12502 -0 0
lthumb 1.44756 77.5265 0.0178194
rclavicle -4.02162e-14 -3.67185e-15 -6.41482e-31
rhumerus -46.678 48.6118 -92.4349
rradius 116.358 -0 0
rwrist -17.0003 0 0
rhand 26.3321 -10.2606 2.63606
rfingers 7.12502 -0 0
rthumb 50.2669 -29.0707 3.14003
818
root -3.14359 14.8821 -38.8518 14.8911 -63.2983 -11.3679
lfemur -36.1223 17.7987 11.8668
ltibia 46.2965 -0 0
lfoot 15.7848 16.8286 0.573961
ltoes -6.81702 0 0
rfemur -20.9625 -17.6623 12.901
rtibia 64.414 -0 0
rfoot -25.5257 -28.0202 0.00388967
rtoes -19.4359 0 0
lowerback 16.0112 2.55001 3.51788
upperback -1.18536 4.24422 2.27827
thorax -10.2292 1.87687 -0.55201
lowerneck -5.10063 9.03993 3.63138
upperneck 4.30462 12.1182 -4.96565
head 2.90231 5.93985 -1.69167
lclavicle -4.01969e-14 -3.8972e-15 -6.19772e-31
lhumerus -0.934884 -23.7272 62.0599
lradius 104.552 -0 0
lwrist 5.58673 0 0
lhand -25.0411 47.5904 0.0185463
lfingers 7.12502 -0 0
lthumb 1.47139 77.5782 0.015834
rclavicle -4.01969e-14 -3.8972e-15 -6.19772e-31
rhumerus -46.4407 48.776 -92.3355
rradius 116.347 -0 0
rwrist -16.6647 0 0
rhand 26.5877 -10.0008 2.55436
rfingers 7.12502 -0 0
rthumb 50.5051 -28.7477 3.04055
819
root -3.0946 14.887 -38.8543 14.5947 -62.9715 -11.0495
lfemur -35.9887 17.7681 11.9102
ltibia 46.1617 -0 0
lfoot 15.8903 16.9733 0.554513
ltoes -6.86575 0 0
rfemur -21.1315 -17.7289 12.9009
rtibia 64.5072 -0 0
rfoot -25.5126 -28.0127 0.00377461
rtoes -19.4482 0 0
lowerback 16.0196 2.5594 3.48546
upperback -1.19014 4.25059 2.25658
thorax -10.2395 1.88119 -0.559337
lowerneck -5.10562 9.06522 3.65494
upperneck 4.30571 12.1526 -5.0076
head 2.90859 5.9562 -1.70676
lclavicle -4.01737e-14 -4.12006e-15 -5.98034e-31
lhumerus -1.27464 -24.1429 61.9037
lradius 105.13 -0 0
lwrist 6.1808 0 0
lhand -25.0175 47.641 0.0165269
lfingers 7.12502 -0 0
lthumb 1.49417 77.6288 0.0139077
rclavicle -4.01737e-14 -4.12006e-15 -5.98034e-31
rhumerus -46.2058 48.937 -92.236
rradius 116.336 -0 0
rwrist -16.3352 0 0
rhand 26.8393 -9.74418 2.4723
rfingers 7.12502 -0 0
rthumb 50.7394 -28.4291 2.94073
